<?xml version="1.0" encoding="UTF-8" ?>
<!DOCTYPE svg PUBLIC "-//W3C//DTD SVG 1.1//EN" "http://www.w3.org/Graphics/SVG/1.1/DTD/svg11.dtd">
<svg width="238pt" height="190pt" viewBox="0 0 238 190" version="1.1" xmlns="http://www.w3.org/2000/svg">
<path fill="#ffffff" d=" M 0.00 0.00 L 238.00 0.00 L 238.00 190.00 L 0.00 190.00 L 0.00 0.00 Z" />
<path fill="#000000" d=" M 2.48 21.31 C 7.71 17.90 13.45 14.23 19.94 14.45 C 39.94 14.48 59.95 14.34 79.94 14.52 C 91.28 16.00 102.51 18.83 114.01 18.52 C 144.69 18.52 175.37 18.50 206.05 18.52 C 210.90 18.56 215.50 16.80 220.05 15.31 C 222.62 17.34 225.45 19.59 228.94 18.52 C 228.19 19.70 227.52 20.92 226.77 22.09 C 228.11 24.71 229.96 27.40 229.35 30.51 C 227.75 33.29 226.46 36.57 223.57 38.28 C 217.92 40.15 212.05 41.79 206.04 41.60 C 173.74 41.57 141.43 41.66 109.13 41.55 C 99.72 40.65 90.37 39.15 81.05 37.64 C 63.03 37.35 45.00 37.57 26.98 37.53 C 19.49 37.78 11.77 36.38 5.13 32.83 C 2.54 29.59 1.99 25.36 2.48 21.31 Z" />
<path fill="#000000" d=" M 12.63 88.44 C 17.19 85.54 22.41 83.08 27.95 83.41 C 90.66 83.42 153.37 83.38 216.07 83.44 C 218.74 84.57 221.26 86.11 224.14 86.72 C 223.56 87.80 222.99 88.87 222.43 89.95 C 223.51 91.84 224.59 93.80 225.07 95.95 C 224.76 99.61 222.10 102.43 220.59 105.65 C 160.40 105.97 100.19 105.67 39.99 105.80 C 30.38 106.93 20.52 105.48 11.77 101.28 C 11.90 98.34 9.16 96.20 9.63 93.23 C 9.57 91.21 10.90 89.38 12.63 88.44 Z" />
<path fill="#000000" d=" M 4.08 157.08 C 9.44 153.07 16.10 150.09 22.95 150.49 C 84.93 150.53 146.91 150.46 208.89 150.52 C 216.09 151.58 222.45 155.28 228.74 158.71 C 228.37 159.46 227.62 160.97 227.24 161.72 C 228.45 164.45 230.15 167.30 229.45 170.42 C 228.00 172.80 226.34 175.07 225.28 177.66 C 219.07 178.45 213.75 174.95 207.99 173.58 C 146.71 173.38 85.42 173.56 24.15 173.49 C 17.76 173.47 11.65 171.40 5.79 169.06 C 4.20 165.34 1.96 161.02 4.08 157.08 Z" />
</svg>
